<svg width="552" height="124" viewBox="0 0 552 124" fill="none" xmlns="http://www.w3.org/2000/svg">
<path d="M87.8313 41.1012C90.8227 38.4576 92.2964 35.8329 93.2068 31.925C94.1168 28.017 93.7969 23.9128 92.291 20.1797C90.785 16.4466 88.1673 13.2687 84.7995 11.0854C81.4317 8.90205 77.4802 7.82098 73.4911 7.99162C69.5024 8.16222 65.6725 9.57606 62.5315 12.0378C59.3904 14.4995 57.0929 17.8876 55.9565 21.7337C54.8201 25.5799 54.9009 29.6943 56.188 33.5083C57.0977 36.63 59.399 41.3557 63.1733 44.7213L70.9477 40.0303C69.1034 38.676 64.7714 33.0444 64.0381 30.871C63.3045 28.6976 63.2586 26.3531 63.9059 24.1614C64.5536 21.9697 65.8626 20.0391 67.6525 18.6363C69.4428 17.2335 71.6248 16.4279 73.898 16.3306C76.1712 16.2334 78.4228 16.8495 80.3418 18.0936C82.2608 19.3378 83.7528 21.1486 84.6107 23.2759C85.469 25.4032 85.6513 27.7419 85.1327 29.9688C84.6138 32.1957 84.0264 34.8351 82.3218 36.3417L87.8313 41.1012Z" fill="#3B3BFC"/>
<path d="M68.6136 37.6848L63.1716 44.7215L86.1835 67.7076L91.781 60.7692L68.6136 37.6848Z" fill="#3B3BFC"/>
<path d="M91.4708 60.5146L86.1843 67.7078C91.3153 72.2424 95.6281 80.9958 95.3311 87.7228L102.355 79.279C102.748 76.2086 94.7102 62.945 91.4708 60.5146Z" fill="#3B3BFC"/>
<path d="M57.809 82.8989C54.8176 85.5425 53.3438 88.1672 52.4338 92.0753C51.5234 95.983 51.8433 100.087 53.3493 103.82C54.8552 107.554 57.473 110.731 60.8408 112.915C64.2086 115.098 68.16 116.179 72.1491 116.009C76.1378 115.838 79.9677 114.424 83.1088 111.962C86.2498 109.501 88.5473 106.112 89.6837 102.266C90.8201 98.4203 90.7393 94.3059 89.4522 90.4919C88.5425 87.3702 86.2413 82.6444 82.4669 79.2788L74.6925 83.9698C76.5369 85.3242 80.8688 90.9558 81.6021 93.1293C82.3357 95.3024 82.3816 97.647 81.7343 99.8387C81.0866 102.03 79.7776 103.961 77.9877 105.364C76.1974 106.767 74.0154 107.572 71.7422 107.67C69.469 107.767 67.2174 107.151 65.2984 105.906C63.3794 104.662 61.8878 102.852 61.0295 100.724C60.1712 98.597 59.989 96.2582 60.5075 94.0314C61.0264 91.8045 61.6138 89.1651 63.3184 87.6585L57.809 82.8989Z" fill="#3B3BFC"/>
<path d="M77.0265 86.315L82.4685 79.2784L59.4566 56.2922L53.8591 63.2307L77.0265 86.315Z" fill="#3B3BFC"/>
<path d="M54.0139 63.3291L59.4559 56.2924C54.3249 51.7578 50.0122 43.0045 50.3091 36.2771L43.2855 44.7212C42.8919 47.7912 50.7749 60.8987 54.0139 63.3291Z" fill="#3B3BFC"/>
<path d="M100.958 34.2451C101.795 40.2562 98.626 46.5981 95.2051 49.1002L100.647 53.7912C104.832 48.6273 106.727 45.1935 108.421 38.7799L100.958 34.2451Z" fill="#3B3BFC"/>
<path d="M45.1387 87.5664C44.302 81.5555 47.4708 75.2135 50.8917 72.7115L45.4497 68.0205C41.2647 73.1844 39.3693 76.6182 37.6753 83.0317L45.1387 87.5664Z" fill="#3B3BFC"/>
<path d="M168.224 94.9844L145.685 37.0547H159.435L174.865 80.1797L190.294 37.0547H204.083L181.427 94.9844H168.224Z" fill="#19254A"/>
<path d="M216.474 43.3047C214.443 43.3047 212.776 42.7578 211.474 41.6641C210.172 40.5443 209.521 39.0339 209.521 37.1328C209.521 35.2057 210.159 33.7083 211.435 32.6406C212.737 31.5469 214.417 31 216.474 31C218.453 31 220.107 31.5469 221.435 32.6406C222.763 33.7083 223.427 35.2057 223.427 37.1328C223.427 39.0078 222.75 40.5052 221.396 41.625C220.068 42.7448 218.427 43.3047 216.474 43.3047ZM210.38 94.9844V49.2422H222.451V94.9844H210.38Z" fill="#19254A"/>
<path d="M234.88 94.9843V49.2421H247.029V56.5858C248.07 54.0338 249.828 52.0286 252.302 50.5703C254.802 49.0859 257.771 48.3438 261.208 48.3438C267.276 48.3438 271.755 50.1146 274.646 53.6562C277.537 57.1719 278.982 62.5495 278.982 69.7891V94.9843H266.794V70.9218C266.794 66.7291 265.987 63.6432 264.373 61.6641C262.758 59.6589 260.258 58.6562 256.873 58.6562C253.435 58.6562 250.935 59.7369 249.373 61.8983C247.81 64.0338 247.029 67.276 247.029 71.625V94.9843H234.88Z" fill="#19254A"/>
<path d="M309.107 96.0391C306.242 96.0391 303.573 95.5052 301.099 94.4375C298.651 93.3698 296.516 91.8464 294.693 89.8672C292.87 87.862 291.425 85.3359 290.357 82.2891C289.315 79.2422 288.794 75.8438 288.794 72.0938C288.794 68.3438 289.315 64.9583 290.357 61.9375C291.399 58.8906 292.831 56.3906 294.654 54.4375C296.477 52.4844 298.612 50.987 301.06 49.9453C303.508 48.8776 306.164 48.3438 309.029 48.3438C312.31 48.3438 315.279 49.1119 317.935 50.6483C320.617 52.1848 322.531 54.2943 323.677 56.9766V49.2421H335.826V94.9061H323.677V87.4452C322.583 90.0494 320.682 92.1327 317.974 93.6952C315.292 95.2577 312.336 96.0391 309.107 96.0391ZM312.544 85.8827C315.956 85.8827 318.729 84.6457 320.865 82.1718C323 79.6978 324.068 76.3385 324.068 72.0938C324.068 67.875 323 64.5417 320.865 62.0938C318.729 59.6458 315.93 58.4219 312.466 58.4219C309.029 58.4219 306.242 59.6458 304.107 62.0938C301.998 64.5155 300.943 67.849 300.943 72.0938C300.943 76.3646 302.011 79.7369 304.146 82.2108C306.281 84.6588 309.081 85.8827 312.544 85.8827Z" fill="#19254A"/>
<path d="M366.888 95.7656C361.289 95.7656 356.537 94.6328 352.63 92.3672C348.75 90.1016 346.25 87.0807 345.13 83.3047L356.185 81.4688C357.018 83.2656 358.373 84.6589 360.248 85.6484C362.123 86.638 364.362 87.1328 366.966 87.1328C369.675 87.1328 371.771 86.6901 373.255 85.8047C374.766 84.9193 375.521 83.6823 375.521 82.0938C375.521 81.1302 375.182 80.3099 374.505 79.6328C373.854 78.9557 372.969 78.4219 371.849 78.0312C370.755 77.6146 369.479 77.263 368.021 76.9766C366.589 76.6641 365.078 76.3516 363.49 76.0391C361.901 75.7266 360.313 75.375 358.724 74.9844C357.136 74.5938 355.625 74.0599 354.193 73.3828C352.761 72.7057 351.485 71.8984 350.365 70.9609C349.271 70.0234 348.399 68.7995 347.748 67.2891C347.097 65.7786 346.784 64.0469 346.81 62.0938C346.888 58.0052 348.75 54.7109 352.396 52.2109C356.068 49.6849 360.768 48.4219 366.498 48.4219C371.315 48.4219 375.599 49.4766 379.349 51.5859C383.125 53.6693 385.56 56.4557 386.654 59.9453L375.794 61.8594C375.117 60.3229 373.958 59.112 372.318 58.2266C370.703 57.3411 368.867 56.8984 366.81 56.8984C364.284 56.8984 362.318 57.3281 360.912 58.1875C359.505 59.0208 358.802 60.1927 358.802 61.7031C358.802 62.6667 359.128 63.487 359.779 64.1641C360.456 64.8151 361.354 65.3359 362.474 65.7266C363.594 66.0911 364.87 66.4036 366.302 66.6641C367.761 66.9245 369.284 67.1979 370.873 67.4844C372.487 67.7448 374.089 68.0573 375.677 68.4219C377.292 68.7604 378.815 69.2552 380.248 69.9062C381.706 70.5312 382.995 71.2995 384.115 72.2109C385.235 73.1224 386.12 74.3333 386.771 75.8438C387.448 77.3281 387.787 79.0469 387.787 81C387.787 85.5573 385.899 89.1641 382.123 91.8203C378.373 94.4505 373.294 95.7656 366.888 95.7656Z" fill="#19254A"/>
<path d="M418.498 95.8827C411.831 95.8827 406.323 93.6562 401.974 89.2031C397.625 84.75 395.451 79.0469 395.451 72.0938C395.451 65.1406 397.625 59.4504 401.974 55.0233C406.323 50.5702 411.831 48.3438 418.498 48.3438C430.867 48.3438 438.198 53.8905 440.49 64.9843L429.865 66.6641C428.094 61.1693 424.487 58.4219 419.044 58.4219C415.633 58.4219 412.873 59.6848 410.763 62.2108C408.654 64.7108 407.599 68.0052 407.599 72.0938C407.599 76.1562 408.654 79.4375 410.763 81.9375C412.873 84.4375 415.633 85.6875 419.044 85.6875C421.623 85.6875 423.849 84.9714 425.724 83.5391C427.625 82.1068 428.953 80.1146 429.708 77.5625L440.412 79.2422C439.37 84.5547 436.935 88.6561 433.107 91.5468C429.305 94.4374 424.435 95.8827 418.498 95.8827Z" fill="#19254A"/>
<path d="M468.388 96.0391C465.524 96.0391 462.854 95.5052 460.38 94.4375C457.932 93.3698 455.797 91.8464 453.974 89.8672C452.151 87.862 450.706 85.3359 449.638 82.2891C448.597 79.2422 448.076 75.8438 448.076 72.0938C448.076 68.3438 448.597 64.9583 449.638 61.9375C450.68 58.8906 452.112 56.3906 453.935 54.4375C455.758 52.4844 457.893 50.987 460.341 49.9453C462.789 48.8776 465.445 48.3438 468.31 48.3438C471.591 48.3438 474.56 49.1119 477.216 50.6483C479.899 52.1848 481.813 54.2943 482.958 56.9766V49.2421H495.107V94.9061H482.958V87.4452C481.865 90.0494 479.964 92.1327 477.255 93.6952C474.573 95.2577 471.617 96.0391 468.388 96.0391ZM471.826 85.8827C475.237 85.8827 478.011 84.6457 480.146 82.1718C482.281 79.6978 483.349 76.3385 483.349 72.0938C483.349 67.875 482.281 64.5417 480.146 62.0938C478.011 59.6458 475.211 58.4219 471.748 58.4219C468.31 58.4219 465.524 59.6458 463.388 62.0938C461.279 64.5155 460.224 67.849 460.224 72.0938C460.224 76.3646 461.292 79.7369 463.427 82.2108C465.563 84.6588 468.362 85.8827 471.826 85.8827Z" fill="#19254A"/>
<path d="M507.615 94.9843V49.2421H519.763V56.5858C520.805 54.0338 522.563 52.0286 525.037 50.5703C527.537 49.0859 530.505 48.3438 533.943 48.3438C540.011 48.3438 544.49 50.1146 547.38 53.6562C550.271 57.1719 551.716 62.5495 551.716 69.7891V94.9843H539.529V70.9218C539.529 66.7291 538.722 63.6432 537.107 61.6641C535.492 59.6589 532.992 58.6562 529.607 58.6562C526.169 58.6562 523.669 59.7369 522.107 61.8983C520.544 64.0338 519.763 67.276 519.763 71.625V94.9843H507.615Z" fill="#19254A"/>
</svg>
